# xmcd
#
# Track frame offsets:
#	150
#	16347
#	34102
#	53512
#	69820
#	87585
#	106960
#	125122
#	139042
#	157072
#
# Disc length: 2295
#
# Revision: 1
# Processed by: cddbd v1.5.1PL0 Copyright (c) Steve Scherf et al.
# Submitted via: dBpowerAMP V4.0
# Normalized: r0:TRMNUM
#
DISCID=8108f50a
DTITLE=House Of Blues - House Of Blues
DYEAR=1996
DGENRE=Blues
TTITLE0=เกลี'คนหลายใจ
TTITLE1=อย่างเธอต้องเจออย่างฉัน
TTITLE2=ไม่เจ็บเท่าไหร่
TTITLE3=รักฉันนะ
TTITLE4=เพื่อวันใหม่
TTITLE5=เพราะรัก
TTITLE6=สบตา
TTITLE7=ละครชีวิต
TTITLE8=ลังเล
TTITLE9=คนน่าเบื่อ
EXTD=
EXTT0=
EXTT1=
EXTT2=
EXTT3=
EXTT4=
EXTT5=
EXTT6=
EXTT7=
EXTT8=
EXTT9=
PLAYORDER=
